<svg width="127" height="30" viewBox="0 0 127 30" fill="none" xmlns="http://www.w3.org/2000/svg">
<path d="M9.8424 29.5739H16.2671V27.6033C16.2671 19.3336 14.7767 13.5947 13.4171 11.7934C15.2474 9.09321 16.3119 5.36637 16.3119 1.12432C16.3119 0.996456 16.2708 0.736969 16.2708 0.312012H9.84613C9.67431 5.92295 8.26984 9.99577 6.61137 11.752V0.312012H0.31366V29.5739H6.61137V17.2765C7.16419 16.8064 7.71701 16.3777 8.22875 15.8624C9.50622 17.7052 9.80504 22.2443 9.84613 29.5701L9.8424 29.5739ZM19.7148 0.312012V29.5739H26.1395V10.165C28.2238 14.2792 29.2883 18.8635 29.2883 23.8313V29.5739H35.672V0.312012H29.2883V8.02517C28.0557 4.76842 26.8193 2.19987 25.6726 0.312012H19.7148ZM39.0337 29.5739H45.4173V24.7339H48.5662V29.5739H54.9909V23.8313C54.9909 13.8505 53.7134 6.17868 49.8848 0.312012H44.1399C40.3112 6.13731 39.0337 13.8053 39.0337 23.8313V29.5739ZM45.4173 19.2508C45.5033 13.5947 46.0561 9.26996 46.9936 6.35543C47.9312 9.26996 48.484 13.5947 48.5662 19.2508H45.4173ZM58.3116 0.315772V29.5777H64.7363V16.3814H66.3088L67.9673 29.5777H74.6908L72.3077 15.0539C73.5852 14.3694 74.392 12.3988 74.392 9.1421C74.392 2.84295 72.6065 0.315772 66.9027 0.315772H58.3078H58.3116ZM64.5234 11.4136V5.45663H65.8008C67.4593 5.45663 68.057 6.31406 68.057 8.32603C68.057 10.7253 67.59 11.4098 65.5879 11.4098H64.5234V11.4136ZM77.6716 29.5777H91.0776V24.0081H84.1V16.3814H90.5247V10.8532H84.1V5.88534H90.7825V0.315772H77.6753V29.5777H77.6716ZM94.1405 0.315772V29.5777H100.565V10.1688C102.65 14.283 103.714 18.8672 103.714 23.8351V29.5777H110.098V0.315772H103.714V8.02893C102.481 4.77218 101.245 2.20364 100.098 0.315772H94.1405ZM112.78 5.67099H116.526V29.5777H122.951V5.67099H126.697V0.315772H112.783V5.67099H112.78Z" fill="#2B2A29"/>
</svg>
