<svg width="72" height="85" viewBox="0 0 72 85" fill="none" xmlns="http://www.w3.org/2000/svg">
<path d="M61.8966 68.9142L42.5535 65.1138C42.3275 64.5577 42.172 63.9764 42.0901 63.3791C41.9294 62.2092 42.0604 61.0053 42.469 59.8971L42.6818 59.3195C42.8994 59.1653 43.1123 59.0038 43.32 58.8349C50.6778 52.8831 54.4086 47.5341 54.4086 42.936C54.4086 42.4558 54.3887 41.9727 54.3497 41.5003C54.349 41.4938 54.3485 41.4873 54.3479 41.481C54.3222 41.2212 54.3001 40.8614 54.2815 40.412C56.7737 39.745 58.6601 37.1286 58.6915 34.0118C58.697 33.4546 58.6457 32.9094 58.5381 32.3804C60.1636 31.6778 61.3039 30.0588 61.3039 28.1787V25.9705C61.3039 25.2829 60.7466 24.7254 60.0588 24.7254H56.3343V19.4853C56.3343 10.2634 48.8298 2.76084 39.6057 2.76084H39.5617V1.24512C39.5617 0.55748 39.0044 0 38.3166 0H32.8512C32.1635 0 31.6061 0.55748 31.6061 1.24512V2.76084H31.3034C22.0793 2.76084 14.575 10.2634 14.575 19.4853V24.7254H10.925C10.2374 24.7254 9.67987 25.2829 9.67987 25.9705V28.1787C9.67987 30.1071 10.8793 31.7606 12.5715 32.4326C12.4704 32.949 12.4211 33.4802 12.4264 34.012C12.4575 37.1115 14.3233 39.7163 16.7953 40.4009C16.7742 40.8556 16.75 41.2278 16.7228 41.5046C16.6831 41.949 16.663 42.4306 16.663 42.9363C16.663 47.5329 20.392 52.8805 27.744 58.828C27.9159 58.9678 28.0912 59.1026 28.2698 59.2324L28.515 59.8973C28.9237 61.0059 29.0547 62.2107 28.8935 63.3813C28.8114 63.9784 28.656 64.5593 28.43 65.115L9.24973 68.9136C3.89008 69.9509 0 74.6649 0 80.1228V83.7549C0 84.4425 0.557481 85 1.24512 85H40.8066C41.4944 85 42.0518 84.4425 42.0518 83.7549C42.0518 83.0672 41.4944 82.5098 40.8066 82.5098H20.3494V78.8797H50.7229V82.5098H46.6494C45.9616 82.5098 45.4043 83.0672 45.4043 83.7549C45.4043 84.4425 45.9616 85 46.6494 85H69.8977C70.5855 85 71.1429 84.4425 71.1429 83.7549V80.1228C71.1429 74.6649 67.2528 69.9507 61.8966 68.9142ZM57.5523 76.3894H53.213V69.746L57.5523 70.5985V76.3894ZM56.2014 33.987C56.1842 35.6977 55.3661 37.1668 54.2217 37.7805C54.2066 36.3782 54.2064 34.6757 54.2224 32.7537H56.0696C56.1606 33.1522 56.2056 33.5687 56.2014 33.987ZM39.606 5.25107C47.0375 5.25107 53.1574 10.9723 53.7902 18.2401H48.4706C47.7828 18.2401 47.2255 18.7976 47.2255 19.4853C47.2255 20.1729 47.7828 20.7304 48.4706 20.7304H53.8442V24.7254H39.562V5.25107H39.606ZM34.0966 20.7304H37.0718V24.7254H34.0966V20.7304ZM37.0718 2.49023V18.2401H34.0966V2.49023H37.0718ZM17.0656 20.7304H22.4392C23.1268 20.7304 23.6843 20.1729 23.6843 19.4853C23.6843 18.7976 23.1268 18.2401 22.4392 18.2401H17.1195C17.7524 10.9723 23.8724 5.25107 31.3037 5.25107H31.6064V24.7254H17.0656V20.7304ZM14.9168 33.987C14.9127 33.5684 14.9575 33.1522 15.0485 32.7537H16.8903C16.9002 34.6206 16.8928 36.3327 16.8697 37.7659C15.7394 37.1437 14.9339 35.6841 14.9168 33.987ZM19.1536 42.9363C19.1536 42.5042 19.1703 42.0969 19.2024 41.737C19.3602 40.1323 19.3984 36.2535 19.3803 32.7536H22.2008C22.8884 32.7536 23.4459 32.1961 23.4459 31.5084C23.4459 30.8208 22.8884 30.2633 22.2008 30.2633H14.2558C13.1059 30.2633 12.1703 29.3282 12.1703 28.1787V27.2156H58.8137V28.1787C58.8137 29.3282 57.8782 30.2633 56.7282 30.2633H28.0229C27.3353 30.2633 26.7778 30.8208 26.7778 31.5084C26.7778 32.1961 27.3353 32.7536 28.0229 32.7536H51.7323C51.7099 35.5338 51.7034 40.0222 51.8688 41.7154C51.9018 42.1168 51.9186 42.5276 51.9186 42.9363C51.9186 46.6919 48.4037 51.5203 41.7519 56.9009C40.0071 58.3186 37.8114 59.0984 35.5609 59.0984C35.5461 59.0984 35.5315 59.0984 35.5166 59.0984C33.2634 59.0984 31.062 58.3168 29.3134 56.8942C22.6668 51.5171 19.1536 46.6907 19.1536 42.9363ZM35.5109 61.5885H35.5662C36.9639 61.5885 38.3463 61.3474 39.6515 60.8874C39.5048 61.8224 39.4938 62.7783 39.6228 63.718C39.7546 64.6772 40.027 65.6057 40.4338 66.4825C40.293 69.0854 38.1303 71.1598 35.4922 71.1598C34.1952 71.1598 32.9695 70.6619 32.0405 69.7581C31.1399 68.8817 30.6166 67.7271 30.5502 66.4828C30.9564 65.607 31.2289 64.6795 31.3609 63.7208C31.4918 62.7687 31.4792 61.7998 31.3272 60.853C32.6618 61.3356 34.0787 61.5886 35.5109 61.5885ZM13.5198 70.6064L17.8591 69.7471V76.3894H13.5198V70.6064ZM2.49007 82.5098V80.1228C2.49007 75.8554 5.53181 72.1695 9.72802 71.3575L11.0294 71.0998V82.5098H2.49007ZM17.8591 82.4883H13.5198V78.8798H17.8591V82.4883ZM20.3494 76.3894V69.2539L28.2002 67.6992C28.4929 69.1526 29.2149 70.4831 30.304 71.5429C31.7005 72.9018 33.5431 73.6502 35.4922 73.6502C39.0859 73.6502 42.0926 71.0892 42.7824 67.6969L50.7228 69.2569V76.3896L20.3494 76.3894ZM57.5523 78.8797V82.4882H53.213V78.8797H57.5523ZM68.6526 82.5098H60.0427V71.0877L61.4202 71.3583C65.6109 72.1693 68.6526 75.8552 68.6526 80.1226V82.5098Z" fill="#0F358C"/>
<path d="M35.4918 51.6921C38.1373 51.6921 40.462 49.9101 41.1455 47.3584C41.3233 46.6942 40.929 46.0116 40.2648 45.8336C39.6002 45.6553 38.9177 46.0499 38.7397 46.7143C38.3476 48.1789 37.012 49.2019 35.4918 49.2019C33.9726 49.2019 32.6375 48.1789 32.2452 46.7143C32.0672 46.0499 31.3838 45.6554 30.7204 45.8336C30.0561 46.0114 29.6618 46.6942 29.8396 47.3584C30.523 49.9101 32.8472 51.6921 35.4918 51.6921Z" fill="#0F358C"/>
</svg>
