<svg width="100%" height="100%" viewBox="0 0 468 279" fill="none" xmlns="http://www.w3.org/2000/svg">
<path d="M227.132 275.766C253.617 275.766 275.088 254.114 275.088 227.406C275.088 200.697 253.617 179.046 227.132 179.046C200.646 179.046 179.175 200.697 179.175 227.406C179.175 254.114 200.646 275.766 227.132 275.766Z" fill="url(#paint0_radial)" stroke="#2B2A29" stroke-width="2"/>
<path d="M93.7654 276.459C120.251 276.459 141.722 254.808 141.722 228.099C141.722 201.391 120.251 179.739 93.7654 179.739C67.2799 179.739 45.8092 201.391 45.8092 228.099C45.8092 254.808 67.2799 276.459 93.7654 276.459Z" fill="url(#paint1_radial)" stroke="#2B2A29" stroke-width="2"/>
<path d="M360.222 275.766C386.708 275.766 408.179 254.114 408.179 227.406C408.179 200.697 386.708 179.046 360.222 179.046C333.737 179.046 312.266 200.697 312.266 227.406C312.266 254.114 333.737 275.766 360.222 275.766Z" fill="url(#paint2_radial)" stroke="#2B2A29" stroke-width="2"/>
<path d="M227.132 273.517C252.385 273.517 272.858 252.873 272.858 227.406C272.858 201.939 252.385 181.295 227.132 181.295C201.878 181.295 181.405 201.939 181.405 227.406C181.405 252.873 201.878 273.517 227.132 273.517Z" fill="url(#paint3_radial)" stroke="#9D9E9E" stroke-width="2"/>
<path d="M93.7654 274.211C119.019 274.211 139.492 253.566 139.492 228.099C139.492 202.633 119.019 181.988 93.7654 181.988C68.5114 181.988 48.039 202.633 48.039 228.099C48.039 253.566 68.5114 274.211 93.7654 274.211Z" fill="url(#paint4_radial)" stroke="#F4D015" stroke-width="2"/>
<path d="M360.222 273.517C385.476 273.517 405.949 252.873 405.949 227.406C405.949 201.939 385.476 181.295 360.222 181.295C334.969 181.295 314.496 201.939 314.496 227.406C314.496 252.873 334.969 273.517 360.222 273.517Z" fill="url(#paint5_radial)" stroke="#F4D015" stroke-width="2"/>
<path d="M36.2799 109.157H59.9552V101.883C59.9552 71.3599 54.4631 50.1781 49.4527 43.5293C56.1974 33.563 60.1204 19.8074 60.1204 4.15006C60.1204 3.67812 59.969 2.72036 59.969 1.15186H36.2937C35.6605 21.8617 30.485 36.8944 24.3734 43.3766V1.15186H1.16613V109.157H24.3734V63.7672C26.4106 62.0322 28.4478 60.4498 30.3335 58.5481C35.0411 65.3496 36.1422 82.1035 36.2937 109.143L36.2799 109.157ZM72.66 1.15186V109.157H96.3353V37.519C104.016 52.7044 107.939 69.6248 107.939 87.9611V109.157H131.463V1.15186H107.939V29.621C103.397 17.6004 98.8405 8.11992 94.6147 1.15186H72.66ZM143.851 109.157H167.375V91.2924H178.979V109.157H202.654V87.9611C202.654 51.122 197.946 22.8056 183.838 1.15186H162.667C148.559 22.6529 143.851 50.9554 143.851 87.9611V109.157ZM167.375 71.0545C167.692 50.1781 169.729 34.2154 173.184 23.458C176.639 34.2154 178.676 50.1781 178.979 71.0545H167.375ZM214.891 1.16574V109.171H238.566V60.4636H244.361L250.472 109.171H275.249L266.467 55.5638C271.175 53.0375 274.148 45.7641 274.148 33.7435C274.148 10.4935 267.568 1.16574 246.55 1.16574H214.877H214.891ZM237.781 42.1274V20.1405H242.489C248.6 20.1405 250.803 23.3053 250.803 30.7314C250.803 39.5872 249.082 42.1135 241.704 42.1135H237.781V42.1274ZM286.233 109.171H335.635V88.6135H309.922V60.4636H333.598V40.0592H309.922V21.7229H334.547V1.16574H286.247V109.171H286.233ZM346.922 1.16574V109.171H370.597V37.5329C378.278 52.7183 382.201 69.6387 382.201 87.975V109.171H405.725V1.16574H382.201V29.6348C377.658 17.6142 373.102 8.1338 368.876 1.16574H346.922ZM415.608 20.9317H429.414V109.171H453.089V20.9317H466.895V1.16574H415.621V20.9317H415.608Z" fill="#2B2A29"/>
<path fill-rule="evenodd" clip-rule="evenodd" d="M1.14258 108.616H453.065V161.876H1.14258V108.616Z" fill="#2B2A29"/>
<path d="M80.9228 144.399C80.8815 144.538 80.8127 144.663 80.7439 144.746C80.6613 144.83 80.5511 144.899 80.3997 144.941C80.2621 144.982 80.0831 145.024 79.8767 145.038C79.6702 145.065 79.4087 145.065 79.1059 145.065C78.7893 145.065 78.514 145.052 78.3075 145.038C78.0873 145.01 77.9083 144.982 77.7707 144.941C77.633 144.899 77.5229 144.83 77.4541 144.746C77.3853 144.663 77.3302 144.538 77.2889 144.399L73.1457 129.311H73.1182L69.2916 144.399C69.2641 144.538 69.209 144.663 69.1402 144.746C69.0714 144.83 68.9613 144.899 68.8374 144.941C68.7135 144.982 68.5346 145.024 68.3281 145.038C68.1216 145.065 67.8463 145.065 67.5297 145.065C67.1856 145.065 66.9103 145.052 66.6901 145.038C66.4699 145.01 66.2771 144.982 66.1395 144.941C66.0019 144.899 65.8917 144.83 65.8091 144.746C65.7266 144.663 65.6853 144.538 65.644 144.399L60.4134 125.952C60.3583 125.716 60.317 125.535 60.317 125.397C60.317 125.272 60.3583 125.161 60.4409 125.091C60.5235 125.022 60.6611 124.966 60.8539 124.953C61.0466 124.925 61.3081 124.925 61.6384 124.925C61.955 124.925 62.2028 124.939 62.3817 124.953C62.5607 124.966 62.7121 124.994 62.8084 125.036C62.9048 125.077 62.9736 125.133 63.0011 125.202C63.0424 125.272 63.07 125.369 63.0837 125.48L67.5297 142.206H67.5435L71.7693 125.508C71.7968 125.397 71.8381 125.3 71.8794 125.23C71.9207 125.147 72.0033 125.091 72.0996 125.05C72.2097 125.008 72.3474 124.98 72.5401 124.953C72.7328 124.925 72.9806 124.925 73.2834 124.925C73.5724 124.925 73.7927 124.939 73.9579 124.953C74.1368 124.98 74.2607 125.008 74.3708 125.05C74.4809 125.091 74.5497 125.147 74.591 125.23C74.6323 125.3 74.6736 125.397 74.7011 125.508L79.2573 142.206H79.2848L83.6482 125.494C83.6757 125.383 83.717 125.3 83.7446 125.23C83.7721 125.147 83.8409 125.091 83.9373 125.05C84.0336 125.008 84.1713 124.98 84.3502 124.953C84.5291 124.925 84.7631 124.925 85.066 124.925C85.3688 124.925 85.6166 124.939 85.7955 124.966C85.9744 124.994 86.0983 125.036 86.1809 125.119C86.2635 125.188 86.3048 125.3 86.291 125.424C86.291 125.563 86.2497 125.744 86.2084 125.98L80.9641 144.413L80.9228 144.399ZM96.1603 137.223V144.594C96.1603 144.677 96.1328 144.746 96.0915 144.816C96.0502 144.885 95.9814 144.927 95.8713 144.968C95.7749 145.01 95.6373 145.038 95.4583 145.052C95.2794 145.079 95.0729 145.093 94.8251 145.093C94.5636 145.093 94.3571 145.079 94.192 145.052C94.0268 145.024 93.8891 144.996 93.779 144.968C93.6689 144.927 93.6001 144.885 93.5588 144.816C93.5175 144.746 93.49 144.677 93.49 144.594V137.223L87.8877 125.966C87.7776 125.73 87.7088 125.549 87.6813 125.411C87.6537 125.286 87.6813 125.175 87.7639 125.105C87.8464 125.036 87.9841 124.98 88.1768 124.966C88.3695 124.939 88.6448 124.939 88.9751 124.939C89.278 124.939 89.5257 124.953 89.7184 124.966C89.9111 124.994 90.0626 125.022 90.1727 125.05C90.2828 125.091 90.3654 125.133 90.4342 125.202C90.4893 125.272 90.5443 125.355 90.5856 125.452L93.3248 131.199C93.5863 131.74 93.8341 132.309 94.0819 132.906C94.3434 133.503 94.6049 134.114 94.8664 134.711H94.894C95.128 134.114 95.3757 133.545 95.6235 132.962C95.8713 132.379 96.119 131.81 96.3806 131.24L99.1335 125.466C99.161 125.355 99.2023 125.272 99.2574 125.202C99.3124 125.133 99.3813 125.077 99.4914 125.036C99.5877 125.008 99.7254 124.966 99.9043 124.953C100.083 124.925 100.29 124.925 100.565 124.925C100.937 124.925 101.212 124.939 101.432 124.966C101.639 124.994 101.79 125.036 101.873 125.119C101.955 125.188 101.983 125.3 101.955 125.424C101.928 125.563 101.859 125.744 101.749 125.966L96.1466 137.223H96.1603ZM117.275 130.866C117.275 131.865 117.11 132.767 116.78 133.572C116.449 134.377 115.981 135.058 115.376 135.627C114.77 136.196 114.027 136.626 113.146 136.931C112.265 137.237 111.219 137.39 109.98 137.39H107.736V144.58C107.736 144.663 107.709 144.732 107.668 144.802C107.626 144.871 107.544 144.913 107.447 144.954C107.351 144.996 107.213 145.024 107.048 145.038C106.883 145.065 106.677 145.079 106.415 145.079C106.153 145.079 105.947 145.065 105.782 145.038C105.617 145.01 105.479 144.982 105.383 144.954C105.273 144.913 105.204 144.871 105.162 144.802C105.121 144.732 105.094 144.663 105.094 144.58V126.146C105.094 125.73 105.204 125.438 105.41 125.272C105.63 125.091 105.864 125.008 106.126 125.008H110.365C110.792 125.008 111.205 125.022 111.591 125.064C111.99 125.105 112.458 125.175 112.981 125.3C113.518 125.424 114.068 125.647 114.619 125.966C115.169 126.299 115.637 126.688 116.037 127.16C116.422 127.631 116.725 128.187 116.931 128.797C117.138 129.422 117.248 130.102 117.248 130.852L117.275 130.866ZM114.509 131.088C114.509 130.283 114.357 129.603 114.054 129.061C113.752 128.52 113.38 128.103 112.939 127.84C112.499 127.576 112.045 127.395 111.563 127.34C111.081 127.271 110.627 127.229 110.173 127.229H107.736V135.238H110.104C110.902 135.238 111.563 135.141 112.086 134.933C112.609 134.724 113.05 134.447 113.407 134.072C113.765 133.711 114.041 133.267 114.22 132.753C114.399 132.254 114.495 131.698 114.495 131.088H114.509ZM137.895 134.78C137.895 136.39 137.702 137.848 137.331 139.152C136.959 140.443 136.395 141.554 135.637 142.456C134.88 143.372 133.944 144.066 132.816 144.552C131.687 145.038 130.366 145.288 128.851 145.288C127.365 145.288 126.071 145.065 124.997 144.607C123.91 144.163 123.015 143.511 122.299 142.664C121.584 141.817 121.061 140.749 120.717 139.485C120.372 138.222 120.193 136.765 120.193 135.113C120.193 133.545 120.386 132.115 120.758 130.824C121.143 129.533 121.708 128.437 122.465 127.548C123.222 126.646 124.158 125.952 125.3 125.466C126.429 124.98 127.75 124.73 129.264 124.73C130.723 124.73 131.99 124.953 133.077 125.397C134.165 125.841 135.059 126.493 135.775 127.34C136.491 128.187 137.028 129.242 137.386 130.491C137.73 131.74 137.909 133.17 137.909 134.794L137.895 134.78ZM135.114 134.96C135.114 133.822 135.018 132.767 134.812 131.81C134.619 130.838 134.289 129.991 133.821 129.269C133.353 128.548 132.733 127.992 131.962 127.59C131.178 127.187 130.228 126.993 129.085 126.993C127.943 126.993 126.979 127.215 126.209 127.645C125.438 128.076 124.805 128.645 124.323 129.367C123.841 130.088 123.483 130.935 123.277 131.893C123.07 132.851 122.96 133.864 122.96 134.933C122.96 136.099 123.057 137.181 123.249 138.167C123.442 139.152 123.772 139.999 124.227 140.721C124.681 141.443 125.3 141.984 126.071 142.387C126.842 142.789 127.805 142.983 128.975 142.983C130.118 142.983 131.095 142.761 131.88 142.331C132.664 141.901 133.297 141.318 133.779 140.582C134.261 139.846 134.605 138.986 134.798 138.028C135.004 137.056 135.101 136.043 135.101 134.96H135.114ZM152.857 143.886C152.857 144.08 152.843 144.247 152.83 144.385C152.802 144.524 152.775 144.649 152.733 144.732C152.692 144.83 152.623 144.885 152.554 144.927C152.485 144.968 152.417 144.996 152.32 144.996H140.634C140.373 144.996 140.152 144.913 139.987 144.746C139.822 144.58 139.739 144.316 139.739 143.955V143.386C139.739 143.261 139.739 143.122 139.767 143.011C139.781 142.9 139.822 142.775 139.863 142.65C139.918 142.525 139.987 142.373 140.083 142.22C140.18 142.067 140.29 141.873 140.428 141.651L149.567 127.243H140.538C140.441 127.243 140.345 127.215 140.276 127.173C140.207 127.132 140.152 127.062 140.097 126.979C140.056 126.896 140.015 126.771 140.001 126.632C139.973 126.493 139.973 126.327 139.973 126.146C139.973 125.938 139.987 125.771 140.001 125.619C140.028 125.48 140.056 125.355 140.097 125.272C140.139 125.175 140.207 125.119 140.276 125.077C140.345 125.036 140.441 125.008 140.538 125.008H151.563C151.839 125.008 152.059 125.091 152.21 125.244C152.362 125.411 152.444 125.647 152.444 125.98V126.577C152.444 126.743 152.43 126.882 152.417 127.021C152.389 127.146 152.362 127.284 152.307 127.409C152.251 127.534 152.183 127.687 152.1 127.84C152.017 127.992 151.894 128.173 151.756 128.381L142.671 142.734H152.334C152.513 142.734 152.637 142.817 152.733 142.997C152.83 143.178 152.871 143.455 152.871 143.858L152.857 143.886ZM147.778 121.399C147.778 121.982 147.668 122.371 147.434 122.593C147.214 122.815 146.801 122.926 146.223 122.926C145.644 122.926 145.259 122.815 145.039 122.607C144.819 122.398 144.722 122.01 144.722 121.441C144.722 120.872 144.832 120.483 145.053 120.261C145.273 120.039 145.672 119.928 146.25 119.928C146.814 119.928 147.214 120.039 147.434 120.261C147.654 120.483 147.764 120.858 147.764 121.413L147.778 121.399ZM162.369 137.237V144.607C162.369 144.691 162.341 144.76 162.3 144.83C162.258 144.899 162.19 144.941 162.079 144.982C161.983 145.024 161.845 145.052 161.667 145.065C161.488 145.093 161.281 145.107 161.033 145.107C160.772 145.107 160.565 145.093 160.4 145.065C160.235 145.038 160.097 145.01 159.987 144.982C159.877 144.941 159.808 144.899 159.767 144.83C159.726 144.76 159.698 144.691 159.698 144.607V137.237L154.096 125.98C153.986 125.744 153.917 125.563 153.889 125.424C153.862 125.3 153.889 125.188 153.972 125.119C154.055 125.05 154.192 124.994 154.385 124.98C154.578 124.953 154.853 124.953 155.183 124.953C155.486 124.953 155.734 124.966 155.927 124.98C156.119 125.008 156.271 125.036 156.381 125.064C156.491 125.105 156.574 125.147 156.642 125.216C156.697 125.286 156.753 125.369 156.794 125.466L159.533 131.213C159.795 131.754 160.042 132.323 160.29 132.92C160.552 133.517 160.813 134.128 161.075 134.724H161.102C161.336 134.128 161.584 133.558 161.832 132.975C162.079 132.392 162.327 131.823 162.589 131.254L165.342 125.48C165.369 125.369 165.411 125.286 165.466 125.216C165.521 125.147 165.589 125.091 165.7 125.05C165.796 125.022 165.934 124.98 166.113 124.966C166.291 124.939 166.498 124.939 166.773 124.939C167.145 124.939 167.42 124.953 167.64 124.98C167.847 125.008 167.998 125.05 168.081 125.133C168.163 125.202 168.191 125.313 168.163 125.438C168.136 125.577 168.067 125.758 167.957 125.98L162.355 137.237H162.369ZM183.525 142.178C183.525 142.345 183.525 142.484 183.511 142.609C183.497 142.734 183.484 142.845 183.456 142.928C183.429 143.025 183.401 143.108 183.36 143.178C183.318 143.247 183.25 143.344 183.139 143.441C183.029 143.552 182.823 143.705 182.493 143.913C182.162 144.122 181.763 144.33 181.281 144.538C180.799 144.732 180.235 144.913 179.616 145.038C178.983 145.177 178.294 145.246 177.551 145.246C176.257 145.246 175.101 145.024 174.069 144.594C173.036 144.163 172.155 143.525 171.426 142.678C170.696 141.831 170.132 140.79 169.746 139.555C169.361 138.32 169.155 136.89 169.155 135.266C169.155 133.614 169.375 132.143 169.788 130.838C170.214 129.547 170.806 128.45 171.563 127.548C172.334 126.646 173.243 125.966 174.316 125.494C175.376 125.022 176.56 124.786 177.854 124.786C178.432 124.786 178.983 124.841 179.519 124.953C180.056 125.064 180.565 125.188 181.02 125.355C181.474 125.522 181.887 125.716 182.245 125.924C182.603 126.146 182.85 126.313 182.988 126.452C183.126 126.59 183.222 126.688 183.25 126.771C183.291 126.84 183.332 126.924 183.346 127.021C183.373 127.118 183.387 127.243 183.415 127.368C183.429 127.507 183.442 127.659 183.442 127.854C183.442 128.062 183.429 128.228 183.415 128.381C183.387 128.52 183.36 128.645 183.318 128.742C183.277 128.839 183.236 128.908 183.167 128.964C183.112 129.006 183.043 129.033 182.961 129.033C182.809 129.033 182.616 128.936 182.355 128.728C182.107 128.534 181.777 128.312 181.364 128.062C180.965 127.826 180.469 127.604 179.891 127.395C179.313 127.201 178.625 127.09 177.813 127.09C176.932 127.09 176.133 127.271 175.417 127.618C174.702 127.965 174.082 128.492 173.573 129.186C173.064 129.88 172.665 130.713 172.389 131.712C172.1 132.698 171.963 133.836 171.963 135.113C171.963 136.376 172.1 137.501 172.375 138.472C172.637 139.444 173.036 140.263 173.532 140.915C174.041 141.568 174.66 142.067 175.39 142.4C176.133 142.734 176.959 142.9 177.881 142.9C178.666 142.9 179.354 142.803 179.946 142.609C180.538 142.414 181.033 142.192 181.446 141.956C181.859 141.72 182.203 141.498 182.465 141.304C182.727 141.11 182.947 141.012 183.098 141.012C183.167 141.012 183.222 141.026 183.277 141.054C183.332 141.082 183.373 141.137 183.401 141.234C183.429 141.318 183.456 141.443 183.47 141.595C183.484 141.748 183.497 141.942 183.497 142.178H183.525ZM198.405 143.886C198.405 144.08 198.391 144.247 198.377 144.385C198.349 144.524 198.322 144.649 198.281 144.732C198.239 144.83 198.171 144.885 198.102 144.927C198.033 144.968 197.964 144.996 197.868 144.996H186.181C185.92 144.996 185.7 144.913 185.535 144.746C185.369 144.58 185.287 144.316 185.287 143.955V143.386C185.287 143.261 185.287 143.122 185.314 143.011C185.328 142.9 185.369 142.775 185.411 142.65C185.466 142.525 185.535 142.373 185.631 142.22C185.727 142.067 185.837 141.873 185.975 141.651L195.115 127.243H186.085C185.989 127.243 185.892 127.215 185.824 127.173C185.755 127.132 185.7 127.062 185.645 126.979C185.603 126.896 185.562 126.771 185.548 126.632C185.521 126.493 185.521 126.327 185.521 126.146C185.521 125.938 185.535 125.771 185.548 125.619C185.576 125.48 185.603 125.355 185.645 125.272C185.686 125.175 185.755 125.119 185.824 125.077C185.892 125.036 185.989 125.008 186.085 125.008H197.111C197.386 125.008 197.606 125.091 197.758 125.244C197.909 125.411 197.992 125.647 197.992 125.98V126.577C197.992 126.743 197.978 126.882 197.964 127.021C197.937 127.146 197.909 127.284 197.854 127.409C197.799 127.534 197.73 127.687 197.647 127.84C197.565 127.992 197.441 128.173 197.303 128.381L188.219 142.734H197.881C198.06 142.734 198.184 142.817 198.281 142.997C198.377 143.178 198.418 143.455 198.418 143.858L198.405 143.886ZM216.354 144.052C216.436 144.274 216.478 144.469 216.478 144.594C216.478 144.732 216.436 144.843 216.367 144.913C216.285 144.982 216.147 145.038 215.955 145.052C215.762 145.079 215.514 145.079 215.197 145.079C214.881 145.079 214.633 145.065 214.44 145.052C214.248 145.038 214.11 145.01 214.014 144.982C213.917 144.941 213.849 144.899 213.793 144.83C213.752 144.76 213.711 144.691 213.67 144.594L211.977 139.735H203.745L202.121 144.538C202.093 144.635 202.052 144.718 201.997 144.774C201.942 144.843 201.873 144.899 201.777 144.954C201.681 144.996 201.543 145.038 201.364 145.052C201.185 145.079 200.951 145.079 200.676 145.079C200.373 145.079 200.139 145.065 199.946 145.038C199.753 145.01 199.616 144.968 199.547 144.885C199.464 144.816 199.437 144.705 199.437 144.566C199.437 144.427 199.478 144.247 199.561 144.024L206.195 125.48C206.237 125.369 206.292 125.272 206.361 125.202C206.429 125.133 206.526 125.077 206.65 125.036C206.773 124.994 206.939 124.966 207.145 124.953C207.338 124.939 207.599 124.925 207.902 124.925C208.233 124.925 208.494 124.939 208.714 124.953C208.935 124.966 209.1 124.994 209.237 125.036C209.375 125.077 209.471 125.133 209.54 125.216C209.609 125.286 209.664 125.383 209.705 125.494L216.354 144.038V144.052ZM207.833 127.673H207.82L204.406 137.625H211.288L207.833 127.673ZM229.939 143.83C229.939 144.038 229.926 144.205 229.912 144.344C229.884 144.482 229.857 144.607 229.816 144.705C229.774 144.802 229.705 144.871 229.65 144.927C229.582 144.968 229.499 144.996 229.416 144.996H220.662C220.428 144.996 220.208 144.913 220.001 144.76C219.795 144.594 219.685 144.316 219.685 143.913V125.424C219.685 125.341 219.712 125.272 219.754 125.202C219.795 125.133 219.864 125.091 219.974 125.05C220.07 125.008 220.208 124.98 220.387 124.966C220.566 124.939 220.772 124.925 221.02 124.925C221.281 124.925 221.488 124.939 221.653 124.966C221.832 124.994 221.956 125.022 222.066 125.05C222.176 125.091 222.245 125.133 222.286 125.202C222.328 125.272 222.355 125.341 222.355 125.424V142.692H229.458C229.554 142.692 229.637 142.72 229.692 142.761C229.761 142.803 229.816 142.872 229.857 142.956C229.898 143.039 229.939 143.15 229.953 143.303C229.981 143.441 229.981 143.622 229.981 143.83H229.939ZM247.806 143.9C247.806 144.108 247.779 144.274 247.71 144.427C247.641 144.566 247.558 144.691 247.448 144.774C247.338 144.871 247.228 144.927 247.09 144.968C246.966 145.01 246.829 145.038 246.691 145.038H245.851C245.59 145.038 245.356 145.01 245.163 144.954C244.971 144.899 244.778 144.788 244.599 144.649C244.42 144.496 244.241 144.302 244.062 144.038C243.883 143.788 243.69 143.455 243.47 143.053L237.221 131.698C236.891 131.102 236.56 130.491 236.23 129.852C235.9 129.2 235.583 128.589 235.308 127.978H235.28C235.308 128.714 235.321 129.478 235.321 130.241C235.321 131.018 235.335 131.782 235.335 132.545V144.594C235.335 144.663 235.321 144.732 235.28 144.802C235.239 144.871 235.17 144.927 235.074 144.954C234.977 144.996 234.853 145.024 234.688 145.038C234.537 145.065 234.33 145.079 234.083 145.079C233.835 145.079 233.642 145.065 233.477 145.038C233.326 145.01 233.188 144.982 233.105 144.954C233.009 144.913 232.94 144.871 232.913 144.802C232.871 144.732 232.844 144.663 232.844 144.594V126.16C232.844 125.744 232.954 125.452 233.174 125.286C233.394 125.105 233.642 125.022 233.917 125.022H235.17C235.473 125.022 235.707 125.05 235.913 125.105C236.106 125.147 236.299 125.244 236.45 125.355C236.602 125.466 236.753 125.647 236.904 125.855C237.056 126.063 237.207 126.327 237.386 126.646L242.19 135.418C242.493 135.946 242.768 136.473 243.043 136.987C243.319 137.501 243.58 138 243.842 138.5C244.103 138.986 244.351 139.485 244.599 139.957C244.847 140.429 245.094 140.915 245.342 141.401H245.356C245.328 140.596 245.328 139.749 245.315 138.861C245.315 137.986 245.315 137.14 245.315 136.321V125.48C245.315 125.411 245.342 125.341 245.37 125.286C245.411 125.216 245.48 125.175 245.576 125.119C245.673 125.077 245.796 125.036 245.962 125.022C246.113 124.994 246.333 124.994 246.581 124.994C246.801 124.994 246.994 125.008 247.159 125.022C247.324 125.05 247.448 125.077 247.545 125.119C247.641 125.161 247.71 125.216 247.737 125.286C247.779 125.355 247.806 125.411 247.806 125.48V143.913V143.9ZM255.707 144.594C255.707 144.677 255.679 144.746 255.638 144.816C255.597 144.885 255.528 144.927 255.418 144.968C255.322 145.01 255.184 145.038 255.005 145.052C254.84 145.079 254.633 145.093 254.372 145.093C254.124 145.093 253.918 145.079 253.739 145.052C253.56 145.024 253.422 144.996 253.326 144.968C253.216 144.927 253.147 144.885 253.105 144.816C253.064 144.746 253.037 144.677 253.037 144.594V125.424C253.037 125.341 253.064 125.272 253.105 125.202C253.147 125.133 253.229 125.091 253.339 125.05C253.45 125.008 253.587 124.98 253.752 124.966C253.918 124.939 254.124 124.925 254.358 124.925C254.62 124.925 254.826 124.939 254.991 124.966C255.17 124.994 255.294 125.022 255.404 125.05C255.514 125.091 255.583 125.133 255.624 125.202C255.666 125.272 255.693 125.341 255.693 125.424V144.594H255.707ZM275.803 144.052C275.886 144.274 275.927 144.469 275.927 144.594C275.927 144.732 275.886 144.843 275.817 144.913C275.735 144.982 275.597 145.038 275.404 145.052C275.212 145.079 274.964 145.079 274.647 145.079C274.331 145.079 274.083 145.065 273.89 145.052C273.697 145.038 273.56 145.01 273.463 144.982C273.367 144.941 273.298 144.899 273.243 144.83C273.202 144.76 273.161 144.691 273.119 144.594L271.426 139.735H263.195L261.571 144.538C261.543 144.635 261.502 144.718 261.447 144.774C261.392 144.843 261.323 144.899 261.227 144.954C261.13 144.996 260.993 145.038 260.814 145.052C260.635 145.079 260.401 145.079 260.125 145.079C259.823 145.079 259.589 145.065 259.396 145.038C259.203 145.01 259.066 144.968 258.997 144.885C258.914 144.816 258.887 144.705 258.887 144.566C258.887 144.427 258.928 144.247 259.011 144.024L265.645 125.48C265.686 125.369 265.741 125.272 265.81 125.202C265.879 125.133 265.975 125.077 266.099 125.036C266.223 124.994 266.388 124.966 266.595 124.953C266.788 124.939 267.049 124.925 267.352 124.925C267.682 124.925 267.944 124.939 268.164 124.953C268.384 124.966 268.549 124.994 268.687 125.036C268.825 125.077 268.921 125.133 268.99 125.216C269.059 125.286 269.114 125.383 269.155 125.494L275.803 144.038V144.052ZM267.283 127.673H267.269L263.856 137.625H270.738L267.283 127.673ZM296.836 139.388C296.836 140.318 296.657 141.151 296.327 141.887C295.983 142.622 295.515 143.233 294.895 143.747C294.289 144.26 293.574 144.649 292.748 144.899C291.922 145.163 291.041 145.288 290.091 145.288C289.431 145.288 288.811 145.232 288.247 145.107C287.682 144.996 287.173 144.857 286.733 144.691C286.292 144.524 285.921 144.358 285.618 144.191C285.315 144.011 285.108 143.858 284.985 143.747C284.861 143.622 284.778 143.455 284.723 143.275C284.668 143.081 284.64 142.831 284.64 142.511C284.64 142.289 284.654 142.095 284.668 141.942C284.695 141.79 284.723 141.679 284.751 141.581C284.792 141.484 284.847 141.429 284.902 141.387C284.957 141.345 285.026 141.332 285.122 141.332C285.26 141.332 285.466 141.415 285.728 141.595C285.989 141.776 286.32 141.97 286.733 142.164C287.146 142.373 287.641 142.567 288.205 142.747C288.784 142.928 289.444 143.011 290.201 143.011C290.779 143.011 291.303 142.928 291.771 142.775C292.252 142.622 292.651 142.4 292.996 142.123C293.34 141.845 293.601 141.484 293.78 141.082C293.959 140.665 294.055 140.207 294.055 139.68C294.055 139.111 293.932 138.625 293.67 138.236C293.422 137.834 293.078 137.487 292.665 137.181C292.252 136.876 291.771 136.598 291.234 136.348C290.697 136.099 290.146 135.835 289.582 135.571C289.018 135.307 288.481 135.016 287.944 134.697C287.407 134.377 286.939 134.003 286.512 133.572C286.099 133.142 285.755 132.628 285.494 132.045C285.232 131.462 285.108 130.768 285.108 129.95C285.108 129.117 285.26 128.381 285.563 127.715C285.865 127.062 286.278 126.507 286.815 126.077C287.352 125.633 287.985 125.3 288.729 125.064C289.472 124.828 290.27 124.717 291.124 124.717C291.564 124.717 292.005 124.758 292.445 124.828C292.885 124.911 293.312 125.008 293.698 125.133C294.083 125.258 294.441 125.411 294.744 125.563C295.047 125.716 295.253 125.855 295.349 125.952C295.446 126.049 295.515 126.132 295.542 126.188C295.57 126.243 295.597 126.313 295.611 126.41C295.638 126.493 295.652 126.604 295.652 126.729C295.666 126.854 295.666 127.007 295.666 127.215C295.666 127.395 295.666 127.562 295.638 127.715C295.625 127.854 295.597 127.978 295.57 128.076C295.542 128.173 295.487 128.242 295.446 128.298C295.391 128.339 295.322 128.367 295.253 128.367C295.143 128.367 294.964 128.298 294.73 128.145C294.496 127.992 294.193 127.84 293.849 127.659C293.505 127.479 293.092 127.312 292.61 127.173C292.128 127.021 291.605 126.951 291.013 126.951C290.463 126.951 289.981 127.021 289.568 127.173C289.155 127.326 288.825 127.52 288.563 127.77C288.302 128.006 288.095 128.312 287.971 128.645C287.834 128.978 287.765 129.339 287.765 129.727C287.765 130.283 287.889 130.755 288.15 131.157C288.412 131.56 288.742 131.921 289.169 132.226C289.596 132.531 290.077 132.823 290.614 133.073C291.151 133.336 291.702 133.586 292.266 133.85C292.83 134.114 293.381 134.405 293.918 134.711C294.455 135.03 294.936 135.391 295.363 135.821C295.79 136.251 296.134 136.751 296.382 137.334C296.643 137.917 296.767 138.597 296.767 139.402L296.836 139.388ZM312.775 130.866C312.775 131.865 312.61 132.767 312.28 133.572C311.95 134.377 311.482 135.058 310.876 135.627C310.27 136.196 309.527 136.626 308.646 136.931C307.765 137.237 306.719 137.39 305.48 137.39H303.237V144.58C303.237 144.663 303.209 144.732 303.168 144.802C303.126 144.871 303.044 144.913 302.947 144.954C302.851 144.996 302.713 145.024 302.548 145.038C302.383 145.065 302.177 145.079 301.915 145.079C301.654 145.079 301.447 145.065 301.282 145.038C301.117 145.01 300.979 144.982 300.883 144.954C300.773 144.913 300.704 144.871 300.663 144.802C300.621 144.732 300.594 144.663 300.594 144.58V126.146C300.594 125.73 300.704 125.438 300.91 125.272C301.131 125.091 301.365 125.008 301.626 125.008H305.866C306.292 125.008 306.705 125.022 307.091 125.064C307.49 125.105 307.958 125.175 308.481 125.3C309.018 125.424 309.568 125.647 310.119 125.966C310.669 126.299 311.137 126.688 311.537 127.16C311.922 127.631 312.225 128.187 312.431 128.797C312.638 129.422 312.748 130.102 312.748 130.852L312.775 130.866ZM310.009 131.088C310.009 130.283 309.857 129.603 309.555 129.061C309.252 128.52 308.88 128.103 308.44 127.84C307.999 127.576 307.545 127.395 307.063 127.34C306.581 127.271 306.127 127.229 305.673 127.229H303.237V135.238H305.604C306.402 135.238 307.063 135.141 307.586 134.933C308.109 134.724 308.55 134.447 308.908 134.072C309.265 133.711 309.541 133.267 309.72 132.753C309.899 132.254 309.995 131.698 309.995 131.088H310.009Z" fill="#FEFEFE"/>
<path d="M329.995 144.58C329.995 144.663 329.981 144.732 329.954 144.802C329.926 144.871 329.858 144.913 329.761 144.954C329.665 144.996 329.513 145.024 329.334 145.052C329.156 145.079 328.908 145.079 328.605 145.079C328.343 145.079 328.123 145.065 327.958 145.052C327.793 145.024 327.655 144.996 327.559 144.954C327.449 144.913 327.38 144.843 327.325 144.76C327.27 144.677 327.215 144.58 327.173 144.455L325.356 139.749C325.136 139.208 324.916 138.722 324.682 138.278C324.448 137.834 324.186 137.445 323.856 137.126C323.54 136.806 323.168 136.557 322.741 136.376C322.314 136.196 321.791 136.112 321.2 136.112H319.438V144.621C319.438 144.705 319.41 144.774 319.369 144.843C319.328 144.913 319.245 144.954 319.149 144.996C319.052 145.038 318.915 145.065 318.749 145.079C318.584 145.107 318.378 145.121 318.116 145.121C317.855 145.121 317.648 145.107 317.483 145.079C317.318 145.052 317.18 145.024 317.084 144.996C316.974 144.954 316.905 144.913 316.864 144.843C316.822 144.774 316.795 144.705 316.795 144.621V126.132C316.795 125.73 316.905 125.452 317.111 125.286C317.318 125.133 317.538 125.05 317.772 125.05H321.984C322.48 125.05 322.893 125.064 323.237 125.091C323.567 125.119 323.87 125.147 324.131 125.175C324.902 125.313 325.577 125.522 326.155 125.813C326.747 126.105 327.242 126.465 327.628 126.91C328.027 127.354 328.316 127.854 328.522 128.423C328.715 128.992 328.825 129.63 328.825 130.31C328.825 130.977 328.743 131.574 328.55 132.101C328.371 132.628 328.109 133.1 327.779 133.503C327.449 133.905 327.036 134.266 326.568 134.558C326.1 134.849 325.577 135.099 324.985 135.307C325.315 135.446 325.604 135.641 325.88 135.849C326.141 136.071 326.389 136.335 326.623 136.64C326.857 136.945 327.077 137.306 327.27 137.709C327.476 138.111 327.683 138.555 327.875 139.069L329.651 143.469C329.789 143.844 329.885 144.108 329.926 144.246C329.968 144.399 329.981 144.51 329.981 144.594L329.995 144.58ZM326.031 130.546C326.031 129.755 325.852 129.103 325.508 128.561C325.164 128.02 324.572 127.631 323.76 127.395C323.498 127.326 323.223 127.271 322.893 127.243C322.576 127.215 322.149 127.201 321.64 127.201H319.424V133.933H321.998C322.686 133.933 323.292 133.85 323.801 133.683C324.31 133.517 324.723 133.281 325.067 132.975C325.398 132.67 325.659 132.323 325.811 131.907C325.962 131.49 326.045 131.046 326.045 130.56L326.031 130.546ZM345.191 143.858C345.191 144.052 345.178 144.219 345.164 144.358C345.136 144.496 345.109 144.621 345.068 144.705C345.026 144.802 344.957 144.857 344.889 144.899C344.82 144.941 344.751 144.968 344.655 144.968H332.968C332.707 144.968 332.487 144.885 332.321 144.718C332.156 144.552 332.074 144.288 332.074 143.927V143.358C332.074 143.233 332.074 143.094 332.101 142.983C332.115 142.872 332.156 142.747 332.198 142.622C332.253 142.498 332.321 142.345 332.418 142.192C332.514 142.039 332.624 141.845 332.762 141.623L341.902 127.215H332.872C332.776 127.215 332.679 127.187 332.61 127.146C332.542 127.104 332.487 127.035 332.432 126.951C332.39 126.868 332.349 126.743 332.335 126.604C332.308 126.465 332.308 126.299 332.308 126.118C332.308 125.91 332.321 125.744 332.335 125.591C332.363 125.452 332.39 125.327 332.432 125.244C332.473 125.147 332.542 125.091 332.61 125.05C332.679 125.008 332.776 124.98 332.872 124.98H343.898C344.173 124.98 344.393 125.064 344.544 125.216C344.696 125.383 344.778 125.619 344.778 125.952V126.549C344.778 126.715 344.765 126.854 344.751 126.993C344.723 127.118 344.696 127.257 344.641 127.382C344.586 127.506 344.517 127.659 344.434 127.812C344.352 127.965 344.228 128.145 344.09 128.353L335.006 142.706H344.668C344.847 142.706 344.971 142.789 345.068 142.969C345.164 143.15 345.205 143.428 345.205 143.83L345.191 143.858ZM360.112 149.466C360.112 149.618 360.112 149.743 360.085 149.84C360.057 149.924 360.03 150.021 360.002 150.076C359.961 150.146 359.92 150.201 359.851 150.229C359.782 150.257 359.644 150.312 359.438 150.368C359.218 150.423 358.942 150.479 358.598 150.534C358.254 150.576 357.869 150.604 357.442 150.604C356.96 150.604 356.534 150.562 356.162 150.465C355.79 150.368 355.474 150.215 355.212 150.021C354.951 149.826 354.744 149.577 354.62 149.299C354.483 149.021 354.428 148.674 354.428 148.286C354.428 147.925 354.51 147.55 354.675 147.175C354.84 146.801 355.13 146.384 355.57 145.94L356.52 144.982H349.5C349.266 144.982 349.046 144.899 348.839 144.746C348.633 144.58 348.522 144.302 348.522 143.899V126.091C348.522 125.688 348.633 125.411 348.839 125.244C349.046 125.091 349.266 125.008 349.5 125.008H358.901C358.984 125.008 359.052 125.036 359.121 125.077C359.19 125.119 359.245 125.188 359.273 125.272C359.314 125.355 359.355 125.48 359.383 125.619C359.41 125.758 359.424 125.924 359.424 126.132C359.424 126.313 359.41 126.479 359.383 126.618C359.355 126.757 359.314 126.868 359.273 126.965C359.231 127.048 359.176 127.118 359.121 127.159C359.052 127.201 358.984 127.229 358.901 127.229H351.165V133.489H357.8C357.882 133.489 357.951 133.517 358.02 133.558C358.089 133.6 358.144 133.656 358.185 133.739C358.227 133.808 358.268 133.919 358.282 134.058C358.309 134.183 358.309 134.35 358.309 134.558C358.309 134.766 358.295 134.933 358.282 135.058C358.254 135.196 358.227 135.307 358.185 135.391C358.144 135.474 358.075 135.543 358.02 135.585C357.951 135.627 357.882 135.654 357.8 135.654H351.165V142.803H359.011C359.19 142.803 359.314 142.886 359.41 143.053C359.493 143.219 359.548 143.483 359.548 143.858C359.548 144.011 359.548 144.135 359.534 144.26C359.52 144.385 359.507 144.496 359.479 144.594C359.452 144.691 359.41 144.774 359.369 144.857C359.328 144.941 359.259 145.01 359.19 145.093L357.525 146.759C357.304 146.995 357.153 147.203 357.07 147.384C356.988 147.564 356.946 147.744 356.946 147.925C356.946 148.202 357.043 148.411 357.222 148.536C357.401 148.661 357.704 148.73 358.089 148.73H359.727C359.796 148.73 359.865 148.744 359.92 148.758C359.975 148.785 360.016 148.813 360.044 148.869C360.071 148.924 360.099 148.994 360.126 149.105C360.154 149.202 360.154 149.327 360.154 149.493L360.112 149.466ZM376.203 126.146C376.203 126.341 376.19 126.507 376.176 126.646C376.148 126.799 376.121 126.91 376.079 126.993C376.038 127.076 375.969 127.146 375.914 127.187C375.845 127.229 375.777 127.257 375.694 127.257H370.119V144.566C370.119 144.649 370.092 144.718 370.05 144.788C370.009 144.857 369.94 144.899 369.83 144.941C369.734 144.982 369.596 145.01 369.431 145.024C369.252 145.052 369.046 145.065 368.798 145.065C368.55 145.065 368.344 145.052 368.165 145.024C367.986 144.996 367.848 144.968 367.752 144.941C367.642 144.899 367.573 144.857 367.532 144.788C367.49 144.718 367.463 144.649 367.463 144.566V127.257H361.888C361.805 127.257 361.737 127.229 361.668 127.187C361.599 127.146 361.544 127.076 361.503 126.993C361.461 126.91 361.434 126.799 361.406 126.646C361.379 126.507 361.365 126.341 361.365 126.146C361.365 125.952 361.379 125.771 361.406 125.633C361.434 125.48 361.475 125.355 361.503 125.272C361.544 125.175 361.599 125.119 361.668 125.077C361.737 125.036 361.805 125.008 361.888 125.008H375.653C375.735 125.008 375.804 125.036 375.873 125.077C375.942 125.119 375.997 125.188 376.038 125.272C376.079 125.355 376.121 125.48 376.134 125.633C376.162 125.785 376.162 125.952 376.162 126.146H376.203ZM393.96 137.598C393.96 138.805 393.781 139.888 393.423 140.846C393.079 141.804 392.57 142.609 391.923 143.261C391.276 143.913 390.477 144.413 389.541 144.76C388.605 145.093 387.532 145.274 386.348 145.274C385.26 145.274 384.256 145.107 383.361 144.788C382.466 144.469 381.695 143.997 381.048 143.372C380.402 142.747 379.906 141.97 379.562 141.026C379.218 140.082 379.039 139.014 379.039 137.792V125.397C379.039 125.313 379.066 125.244 379.108 125.175C379.149 125.105 379.218 125.064 379.328 125.022C379.424 124.98 379.562 124.952 379.727 124.939C379.892 124.911 380.099 124.897 380.374 124.897C380.622 124.897 380.828 124.911 381.007 124.939C381.186 124.966 381.31 124.994 381.42 125.022C381.516 125.064 381.585 125.105 381.627 125.175C381.668 125.244 381.695 125.313 381.695 125.397V137.459C381.695 138.389 381.806 139.194 382.026 139.888C382.246 140.582 382.576 141.151 383.003 141.609C383.43 142.067 383.939 142.414 384.531 142.636C385.137 142.872 385.797 142.983 386.541 142.983C387.298 142.983 387.986 142.872 388.578 142.65C389.17 142.428 389.679 142.081 390.092 141.623C390.505 141.165 390.821 140.61 391.042 139.944C391.262 139.277 391.372 138.486 391.372 137.598V125.383C391.372 125.299 391.386 125.23 391.427 125.161C391.468 125.091 391.537 125.05 391.647 125.008C391.757 124.966 391.881 124.939 392.06 124.925C392.225 124.897 392.446 124.883 392.693 124.883C392.941 124.883 393.148 124.897 393.313 124.925C393.478 124.952 393.616 124.98 393.712 125.008C393.808 125.05 393.891 125.091 393.932 125.161C393.974 125.23 394.001 125.299 394.001 125.383V137.584L393.96 137.598Z" fill="#FEFEFE"/>
<path fill-rule="evenodd" clip-rule="evenodd" d="M90.5994 232.222C89.925 230.82 89.7047 220.382 89.4845 217.8C88.1631 217.12 87.7089 217.578 87.4198 214.788C86.8417 214.746 85.8093 214.816 85.3276 214.718C84.6531 214.566 84.6668 214.149 84.2677 213.664C82.1754 213.58 82.024 214.135 81.2807 212.456C75.6785 212.373 78.4314 212.761 76.7797 213.15L71.4527 213.205C70.0487 213.205 69.6083 212.872 69.5945 211.457C69.5807 209.083 71.1361 209.652 74.7838 209.638C75.2793 209.638 75.9813 209.597 76.4493 209.638C77.4266 209.735 77.11 209.957 77.6193 210.249C78.2663 210.61 80.2346 210.402 81.1018 210.402C81.8313 210.055 81.1018 209.569 82.1204 209.277C82.5196 209.166 83.7446 209.236 84.2539 209.208C85.4377 207.861 83.7997 208.306 87.4198 208.07C87.5437 206.335 87.64 205.724 89.223 205.085C89.278 203.656 88.9339 202.851 90.1177 202.448C91.3427 202.032 90.5857 202.143 91.1225 201.615C91.5492 201.199 91.9621 201.351 92.6504 201.296L92.7743 198.77C95.2794 197.076 94.7564 200.741 94.839 201.282L96.243 201.365C96.2567 201.407 96.766 202.157 96.766 202.17L97.2203 202.392C97.4818 202.476 97.5093 202.379 97.8397 202.601C98.4729 203.031 98.2389 204.266 98.3077 205.071C99.9044 206.001 99.9319 205.89 100.083 208.042C102.368 208.278 102.093 207.459 103.249 209.208C106.057 209.263 105.548 208.972 106.236 210.374C113.242 210.527 107.571 209.597 112.527 209.624C116.257 209.638 117.909 209.055 117.909 211.443C117.909 213.83 116.064 213.219 112.527 213.233C107.833 213.247 112.967 212.206 106.222 212.456C105.589 214.094 105.218 213.622 103.208 213.65C102.244 215.496 102.134 214.399 100.317 214.871C99.7805 215.01 100.414 215.926 99.6429 216.87C99.0372 217.606 98.9684 217.397 98.1287 217.814C97.5369 221.187 97.8259 229.682 96.9863 232.18C94.6325 232.902 94.605 231.32 94.8114 235.054C95.4584 235.026 95.596 234.609 96.1329 234.887C96.6697 235.178 96.4081 235.859 96.2567 236.247L95.7612 236.483L94.7977 236.816L94.8114 238.898C95.5823 238.885 95.1143 238.676 96.0365 238.663L96.1879 238.607C96.4907 239.273 96.4907 238.954 96.4632 239.801L95.8163 240.356C95.3207 240.411 95.4033 240.411 94.9078 240.62L94.894 242.646C95.4033 242.605 96.766 242.188 96.5183 243.396C96.4081 243.965 95.4446 244.229 94.9078 244.479L94.8803 246.491C95.362 246.45 96.7798 246.033 96.5183 247.227C96.3806 247.865 95.4859 247.963 94.894 248.462V250.336C95.9401 250.253 95.6924 249.975 96.4907 250.53C96.6284 251.696 95.7887 251.78 94.9353 252.168C94.8114 253.279 95.2932 256.777 93.7516 257.721C92.5953 256.846 92.7605 255.069 92.6779 253.39C91.8658 253.431 92.1136 253.765 91.1638 253.418C90.7233 252.071 91.852 252.016 92.6504 251.544V249.573C92.0172 249.656 90.6132 249.975 91.095 248.698C91.3014 248.171 92.1549 248.06 92.6917 247.616L92.6641 245.658C92.0585 245.714 90.5994 246.116 91.095 244.839C91.2464 244.437 91.6043 244.354 92.0034 244.187C92.8293 243.826 92.7054 244.243 92.6779 241.813C91.8796 241.869 92.0998 242.188 91.1638 241.841C90.916 241.064 90.9298 240.842 91.618 240.55C92.1136 240.356 92.2925 240.259 92.7054 240.009L92.7192 237.913C91.8107 237.899 92.5265 237.844 92.2099 238.232C91.4391 238.038 91.0399 238.274 91.0261 237.233C91.4804 236.58 91.6318 236.803 92.0998 236.414L92.733 236.206V232.749C92.6504 232.166 91.5905 232.402 90.5994 232.222ZM97.9911 238.427C97.8947 237.774 97.7846 238.093 97.5506 237.413C97.881 236.858 98.3214 236.344 98.2389 235.401C98.2251 235.137 98.2526 234.901 98.1425 234.651C97.9498 234.207 98.1012 234.471 97.7433 234.207C97.9085 232.833 98.7619 233.79 98.9546 231.389L99.7254 219.063C101.129 217.953 100.909 218.216 101.749 216.481C103.827 216.398 103.662 215.524 104.598 215.371C105.19 215.274 106.126 215.454 106.979 214.705C107.103 214.594 107.269 214.358 107.392 214.219C109.829 213.997 109.264 214.941 111.549 214.954C113.215 214.968 115.073 215.024 116.725 214.941C120.097 214.788 120.469 210.277 118.638 208.667C117.482 207.639 115.858 207.903 114.206 207.903C112.472 207.903 110.806 207.667 109.485 208.361C107.324 209.499 107.145 207.695 105.562 207.542C103.993 207.39 104.805 207.792 103.703 206.931C103.112 206.46 102.299 206.543 101.763 206.21C101.322 205.738 101.129 205.002 100.62 204.502C99.4639 203.364 100.359 203.725 99.7667 202.351C99.2987 201.254 98.7757 201.296 97.4267 200.172C97.1239 199.922 96.9037 199.838 96.5183 199.602C96.4081 197.715 95.6786 196.646 93.7378 196.66C91.7557 196.674 91.1087 197.826 90.9849 199.644C90.2553 200.074 90.0213 200.408 89.3469 200.824C88.5347 201.338 88.1769 201.449 87.7914 202.268C87.1445 203.656 87.9979 203.434 87.0481 204.377C86.4287 205.002 86.2498 205.405 85.8506 206.154C85.8093 206.182 85.7405 206.14 85.713 206.21C85.6304 206.404 85.0247 206.251 84.1988 206.695C83.3592 207.14 83.7584 207.376 82.6159 207.473C79.7116 207.723 81.2532 208.694 79.2848 208.68C77.4404 208.667 79.2298 207.584 70.9572 207.903C68.1354 208.014 67.0205 211.29 68.3694 213.553C69.6083 215.607 73.3798 214.954 75.9538 214.941C78.1424 214.927 77.9772 214.011 79.6152 214.163C80.5099 214.247 80.2208 214.469 80.9504 214.954C81.7212 215.468 82.0653 215.246 82.9325 215.371C83.662 215.468 83.5381 215.815 84.2401 216.176C85.0798 216.62 85.5203 216.231 85.9607 216.787C86.2636 217.189 86.2773 217.633 86.7591 218.175C88.4659 220.049 87.6813 217.967 88.1631 223.56C88.3145 225.282 88.4521 231.098 88.6999 232.139C89.1129 233.874 90.0076 233.554 90.9436 234.248L90.8885 235.248C89.2092 235.276 88.989 238.732 90.0489 239.107L89.691 239.995C88.6173 241.397 89.8837 242.952 90.0076 243.299C89.6634 243.909 89.2367 244.312 89.278 245.297C89.3193 246.45 89.7736 246.366 90.0489 247.144C88.4384 249.42 89.7047 250.059 90.0351 251.002C89.2643 252.016 88.7687 253.307 89.9112 254.514L90.8334 255.292C90.9436 255.444 91.7144 260.552 94.5499 259.372C95.4859 258.984 95.7612 257.97 96.2017 257.013C96.766 255.791 96.5183 254.847 96.5871 253.376C99.285 251.724 98.0599 250.294 97.5093 249.004C97.8672 248.365 98.2801 247.99 98.2389 246.991C98.1976 245.936 97.7709 245.783 97.4543 245.145C97.9223 244.492 98.3214 244.076 98.2251 242.966C98.1012 241.605 97.3717 241.98 97.6057 240.925C97.7158 240.87 97.9498 240.8 98.0049 240.786C98.115 240.398 98.2113 240.078 98.2526 239.606C98.349 238.316 98.0737 238.538 97.9498 238.44L97.9911 238.427ZM91.0674 215.177C90.2691 214.594 90.6132 212.553 90.6132 211.429C90.6132 210.346 90.2416 208.292 91.0674 207.695C91.7832 207.362 95.8576 207.445 96.6697 207.667C97.1514 208.583 97.0826 212.803 96.9587 214.288C96.8486 215.69 95.7474 215.357 94.426 215.343C93.4212 215.343 91.8245 215.565 91.0674 215.163V215.177ZM90.8197 205.918C89.1541 206.446 88.8926 207.431 88.9064 209.25C88.9201 213.108 87.9841 217.037 91.7557 217.106C96.0227 217.175 98.7206 217.814 98.7069 213.608C98.6931 210.124 99.6291 205.904 95.9401 205.779C94.6876 205.738 91.8383 205.599 90.8334 205.918H90.8197Z" fill="#2B2A29"/>
<path fill-rule="evenodd" clip-rule="evenodd" d="M207.861 219.119L207.847 239.884C209.306 239.19 210.931 238.801 212.651 238.801C218.859 238.801 223.883 243.868 223.883 250.128C223.883 253.376 222.521 256.305 220.359 258.373C225.439 258.484 227.889 259.817 227.875 254.014C227.861 250.697 228.095 236.678 227.724 235.387C224.214 235.262 222.851 235.886 221.144 234.665C219.024 226.073 222.644 221.936 222.823 221.881C220.538 218.522 208.687 215.052 207.875 219.119H207.861ZM220.883 221.978C219.561 220.909 217.249 219.979 215.996 219.591C214.578 219.146 212.927 218.772 211.426 218.772C210.958 218.772 209.664 218.841 209.348 219.271C209.334 219.285 209.32 219.313 209.32 219.327L209.306 237.76C210.394 237.469 211.509 237.316 212.637 237.316C219.657 237.316 225.342 243.049 225.342 250.128C225.342 252.612 224.64 255 223.333 257.054C223.622 257.068 223.925 257.082 224.214 257.096C224.599 257.11 225.48 257.124 225.81 256.888C226.361 256.513 226.375 254.584 226.375 254.028C226.361 251.03 226.416 248.018 226.43 245.006C226.443 242.993 226.443 240.994 226.416 238.982C226.402 238.274 226.388 237.566 226.361 236.872C225.783 236.886 225.205 236.9 224.613 236.927C223.759 236.955 222.906 236.969 222.066 236.747C221.406 236.58 220.827 236.289 220.277 235.9L219.823 235.581L219.685 235.04C218.859 231.667 218.639 228.002 219.685 224.643C219.878 224.032 220.304 222.922 220.855 221.992L220.883 221.978Z" fill="#2B2A29"/>
<path fill-rule="evenodd" clip-rule="evenodd" d="M216.56 211.554L218.487 211.582C218.776 199.034 223.897 194.273 230.187 194.342C236.615 194.411 240.676 198.95 240.593 205.238L240.607 209.403C240.607 221.729 240.814 238.135 240.58 250.142H242.273L242.713 205.127C242.713 195.883 235.501 192.482 230.311 192.44C223.112 192.385 216.588 196.854 216.56 211.54V211.554Z" fill="#2B2A29"/>
<path fill-rule="evenodd" clip-rule="evenodd" d="M231.894 259.803C236.368 260.081 241.778 259.817 246.361 259.817C248.811 259.817 252.569 260.511 250.848 257.568C250.257 256.569 249.417 256.68 247.972 256.694H236.506C232.775 256.694 231.426 256.291 231.894 259.803Z" fill="#2B2A29"/>
<path fill-rule="evenodd" clip-rule="evenodd" d="M222.149 233.679C224.544 234.29 225.383 234.235 227.861 234.165C227.957 231.32 226.443 224.393 223.69 222.95C221.254 224.837 221.419 231.556 222.163 233.679H222.149Z" fill="#2B2A29"/>
<path fill-rule="evenodd" clip-rule="evenodd" d="M220.951 218.105L220.91 213.414L214.344 213.344L214.207 216.162C216.877 216.176 219.781 217.536 220.938 218.105H220.951Z" fill="#2B2A29"/>
<path fill-rule="evenodd" clip-rule="evenodd" d="M244.255 251.808C243.016 251.641 239.548 251.502 238.529 251.919C238.061 252.585 237.868 254.07 237.758 255.042L245.04 255C245.04 253.348 245.067 253.362 244.269 251.794L244.255 251.808Z" fill="#2B2A29"/>
<path fill-rule="evenodd" clip-rule="evenodd" d="M212.651 241.342C217.455 241.342 221.364 245.27 221.364 250.128C221.364 254.972 217.469 258.915 212.651 258.915C207.847 258.915 203.938 254.986 203.938 250.128C203.938 245.284 207.834 241.342 212.651 241.342ZM212.651 243.091C216.505 243.091 219.63 246.242 219.63 250.128C219.63 254.015 216.505 257.166 212.651 257.166C208.797 257.166 205.673 254.015 205.673 250.128C205.673 246.242 208.797 243.091 212.651 243.091Z" fill="#2B2A29"/>
<path fill-rule="evenodd" clip-rule="evenodd" d="M371.11 225.727L373.836 225.74L373.725 233.902L371.22 233.847L371.11 225.713V225.727ZM386.568 249.337C386.017 249.782 381.874 251.961 380.043 250.67C377.786 249.101 376.561 247.158 374.565 247.047C369.458 246.783 369.624 246.853 367.435 249.032C365.095 251.364 365.618 251.739 365.081 255.681C364.09 254.418 362.617 250.809 363.65 249.185C365.233 246.728 367.022 245.978 367.063 243.508C367.16 237.525 367.407 238.344 365.315 236.401C364.379 235.54 364.352 234.832 362.714 234.485C361.461 234.221 360.14 234.263 358.86 233.972L360.167 233.25C362.796 232.223 363.856 231.584 365.343 232.667C368.495 234.957 368.564 236.026 370.849 236.04C375.171 236.054 375.666 236.637 378.02 234.319C380.319 232.042 379.479 231.237 380.277 227.656C380.924 228.419 381.282 229.766 381.626 230.807C382.521 233.472 382.494 233.319 379.644 236.748C378.791 237.775 378.02 237.997 377.979 239.774C377.951 240.856 377.896 243.272 378.02 244.271C378.185 245.576 381.489 248.505 382.48 248.727C383.746 249.018 385.191 248.977 386.568 249.31V249.337ZM375.969 225.74L378.419 225.796C377.717 229.738 378.213 231.778 375.955 232.972L375.969 225.74ZM380.828 216.066C382.824 216.288 382.865 218.439 381.447 218.981L364.338 219.105C362.493 218.842 362.191 216.871 363.787 216.177L380.842 216.052L380.828 216.066ZM366.293 211.11L378.915 211.138L378.942 213.928L366.224 213.845L366.293 211.11ZM364.214 208.973C364.2 199.52 363.347 200.172 372.707 200.172C381.943 200.172 380.966 199.673 380.966 208.959H380.58L364.214 208.973ZM340.236 206.433L340.126 204.281C341.764 204.364 341.612 204.087 341.819 204.239C345.081 206.891 353.12 216.121 355.666 218.911C356.685 219.855 356.891 221.174 358.791 221.271C362.246 221.451 366.554 221.34 370.078 221.271C373.01 221.215 378.295 220.993 380.938 221.437C381.571 224.477 379.163 223.617 376.644 223.575L356.974 223.672C356.272 222.923 355.46 222.367 354.799 221.646L340.236 206.419V206.433ZM329.087 207.335C325.535 207.335 325.453 203.504 329.087 203.504H335.115C339.355 203.504 338.873 207.335 335.639 207.335H329.087ZM381.035 213.942L381.158 211.11C381.915 211.096 382.411 210.985 382.893 210.722C383.485 208.265 383.375 201.671 382.039 200.006C379.92 197.368 376.465 198.049 372.445 198.049C368.151 198.049 365.274 197.285 363.017 200.172C361.791 201.727 361.723 208.487 362.273 210.694C362.879 211.055 363.361 211.013 364.09 211.263L364.118 213.65L363.416 214.039C362.535 214.442 361.943 214.442 361.241 215.566C360.429 216.857 360.677 217.717 360.897 219.133C358.213 219.466 357.8 218.162 355.57 215.594L343.815 203.226C342.108 201.63 341.365 202.31 339.093 202.102C338.047 202.005 337.841 201.574 336.698 201.422L328.054 201.408C324.737 201.769 323.113 205.641 325.508 208.209C327.228 210.055 333.216 209.681 336.203 209.472C337.689 209.375 337.882 208.862 338.846 208.751C340.071 208.612 340.222 209.223 340.759 209.764L343.526 212.79C347.187 216.968 354.317 225.615 357.497 225.727C361.103 225.851 365.494 225.879 369.087 225.685L369.101 232.806C365.081 229.96 365.453 229.322 361.64 230.515C358.722 231.431 355.267 232.334 355.418 234.888C359.52 238.108 364.971 234.221 364.93 241.412C364.902 246.853 364.008 243.841 361.392 248.796C360.195 251.073 363.595 260.581 366.114 258.86C368.041 257.541 366.458 252.905 368.715 250.614C370.188 249.115 369.954 249.24 372.707 249.226C373.56 249.226 374.414 249.088 375.171 249.49C377.662 250.837 378.337 254.57 384.132 252.683C387.215 251.669 390.312 250.809 389.83 248.171C387.587 246.867 380.291 247.672 380.112 243.022C380.043 241.328 379.92 239.885 380.663 238.858C381.599 237.525 384.503 234.971 384.297 232.708C384.077 230.432 382.714 227.337 381.681 225.602C382.37 224.366 384.2 223.575 382.838 220.799C385.577 218.55 385.164 214.622 381.062 213.956L381.035 213.942Z" fill="#2B2A29"/>
<path fill-rule="evenodd" clip-rule="evenodd" d="M371.606 240.273C373.657 238.927 375.116 242.147 373.244 243.035C371.495 243.868 369.94 241.356 371.606 240.273ZM371.785 237.941C366.829 239.079 368.481 246.214 373.367 245.242C377.965 244.326 376.657 236.831 371.785 237.941Z" fill="#2B2A29"/>
<defs>
<radialGradient id="paint0_radial" cx="0" cy="0" r="1" gradientUnits="userSpaceOnUse" gradientTransform="translate(227.132 179.046) scale(49.996 50.4169)">
<stop stop-color="#FEFEFE"/>
<stop offset="1" stop-color="#FFD70C"/>
</radialGradient>
<radialGradient id="paint1_radial" cx="0" cy="0" r="1" gradientUnits="userSpaceOnUse" gradientTransform="translate(227.132 179.045) scale(49.996 50.417)">
<stop stop-color="#FEFEFE"/>
<stop offset="1" stop-color="#FFD70C"/>
</radialGradient>
<radialGradient id="paint2_radial" cx="0" cy="0" r="1" gradientUnits="userSpaceOnUse" gradientTransform="translate(227.131 179.046) scale(49.996 50.4169)">
<stop stop-color="#FEFEFE"/>
<stop offset="1" stop-color="#FFD70C"/>
</radialGradient>
<radialGradient id="paint3_radial" cx="0" cy="0" r="1" gradientUnits="userSpaceOnUse" gradientTransform="translate(227.13 181.3) scale(49.996 50.417)">
<stop stop-color="#FEFEFE"/>
<stop offset="1" stop-color="#A3A3A4"/>
</radialGradient>
<radialGradient id="paint4_radial" cx="0" cy="0" r="1" gradientUnits="userSpaceOnUse" gradientTransform="translate(227.132 179.045) scale(49.996 50.4169)">
<stop stop-color="#FEFEFE"/>
<stop offset="1" stop-color="#FFD70C"/>
</radialGradient>
<radialGradient id="paint5_radial" cx="0" cy="0" r="1" gradientUnits="userSpaceOnUse" gradientTransform="translate(227.132 179.046) scale(49.996 50.417)">
<stop stop-color="#FEFEFE"/>
<stop offset="1" stop-color="#FFD70C"/>
</radialGradient>
</defs>
</svg>
