<svg width="16" height="16" viewBox="0 0 16 16" fill="none" xmlns="http://www.w3.org/2000/svg">
<g clip-path="url(#clip0)">
<path d="M14.9666 11.7424L12.8196 9.50954C12.0528 8.71209 10.7493 9.0311 10.4426 10.0678C10.2126 10.7855 9.4458 11.1842 8.7557 11.0247C7.22216 10.626 5.15186 8.5526 4.76848 6.87797C4.53844 6.16024 4.99851 5.36279 5.68861 5.12359C6.68541 4.80461 6.99212 3.44895 6.22535 2.65151L4.07838 0.418659C3.46496 -0.139553 2.54483 -0.139553 2.00809 0.418659L0.551216 1.93381C-0.905655 3.5287 0.704571 7.75516 4.30841 11.5032C7.91225 15.2511 11.9762 17.0056 13.5097 15.4106L14.9666 13.8955C15.5034 13.2575 15.5034 12.3006 14.9666 11.7424Z" fill="black"/>
</g>
<defs>
<clipPath id="clip0">
<rect width="15.3846" height="16" fill="white"/>
</clipPath>
</defs>
</svg>
