<svg width="87" height="77" viewBox="0 0 87 77" fill="none" xmlns="http://www.w3.org/2000/svg">
<path d="M78.0991 25.3783L80.2855 23.1918C80.4774 23.003 80.63 22.7781 80.7345 22.5301C80.8391 22.282 80.8934 22.0157 80.8945 21.7466C80.8956 21.4774 80.8434 21.2107 80.7409 20.9618C80.6384 20.7129 80.4876 20.4868 80.2973 20.2964C80.107 20.1061 79.8809 19.9553 79.632 19.8528C79.3831 19.7503 79.1163 19.6981 78.8472 19.6992C78.578 19.7003 78.3117 19.7547 78.0637 19.8592C77.8156 19.9637 77.5907 20.1163 77.402 20.3082L75.1264 22.5838C71.2848 19.4201 66.7272 17.2448 61.8516 16.2478V11.5547H63.8906C64.4314 11.5547 64.9501 11.3399 65.3325 10.9575C65.7149 10.5751 65.9297 10.0564 65.9297 9.51562V2.71875C65.9297 2.17796 65.7149 1.65931 65.3325 1.27692C64.9501 0.894517 64.4314 0.679688 63.8906 0.679688H47.5781C47.0373 0.679688 46.5187 0.894517 46.1363 1.27692C45.7539 1.65931 45.5391 2.17796 45.5391 2.71875V9.51562C45.5391 10.0564 45.7539 10.5751 46.1363 10.9575C46.5187 11.3399 47.0373 11.5547 47.5781 11.5547H49.6172V16.2478C44.7415 17.2448 40.1839 19.4201 36.3424 22.5838L34.0668 20.3082C33.878 20.1163 33.6531 19.9637 33.4051 19.8592C33.157 19.7547 32.8907 19.7003 32.6216 19.6992C32.3524 19.6981 32.0857 19.7503 31.8368 19.8528C31.5879 19.9553 31.3617 20.1061 31.1714 20.2964C30.9811 20.4868 30.8303 20.7129 30.7278 20.9618C30.6253 21.2107 30.5731 21.4774 30.5742 21.7466C30.5753 22.0157 30.6297 22.282 30.7342 22.5301C30.8387 22.7781 30.9913 23.003 31.1832 23.1918L33.3696 25.3783C28.0823 31.0292 25.143 38.48 25.1484 46.2188C25.1484 63.0838 38.8693 76.8047 55.7344 76.8047C72.5995 76.8047 86.3203 63.0838 86.3203 46.2188C86.3257 38.48 83.3865 31.0292 78.0991 25.3783ZM49.6172 4.75781H61.8516V7.47656H49.6172V4.75781ZM53.6953 11.5547H57.7734V15.7025C57.0992 15.6578 56.4197 15.6328 55.7344 15.6328C55.0491 15.6328 54.3696 15.6578 53.6953 15.7025V11.5547ZM55.7344 72.7266C41.1179 72.7266 29.2266 60.8353 29.2266 46.2188C29.2266 31.6022 41.1179 19.7109 55.7344 19.7109C70.3509 19.7109 82.2422 31.6022 82.2422 46.2188C82.2422 60.8353 70.3509 72.7266 55.7344 72.7266Z" fill="#0F358C"/>
<path d="M55.7344 23.7891C43.3666 23.7891 33.3047 33.851 33.3047 46.2188C33.3047 58.5865 43.3666 68.6484 55.7344 68.6484C68.1021 68.6484 78.1641 58.5865 78.1641 46.2188C78.1641 33.851 68.1021 23.7891 55.7344 23.7891ZM73.9721 44.1797H57.7734V27.981C61.9081 28.4495 65.7616 30.3068 68.704 33.2491C71.6464 36.1915 73.5036 40.045 73.9721 44.1797ZM55.7344 64.5703C51.0443 64.5698 46.5325 62.7737 43.1253 59.5507C39.7181 56.3278 37.6741 51.9226 37.4132 47.2399C37.1522 42.5571 38.694 37.9521 41.722 34.3705C44.75 30.789 49.0344 28.5026 53.6953 27.981V46.2188C53.6953 46.7595 53.9101 47.2782 54.2925 47.6606C54.6749 48.043 55.1936 48.2578 55.7344 48.2578H73.9721C73.4651 52.7417 71.3261 56.8823 67.9628 59.8906C64.5994 62.8989 60.2468 64.5646 55.7344 64.5703Z" fill="#0F358C"/>
<path d="M23.1094 31.9453H9.51562C8.97483 31.9453 8.45619 32.1601 8.07379 32.5425C7.69139 32.9249 7.47656 33.4436 7.47656 33.9844C7.47656 34.5252 7.69139 35.0438 8.07379 35.4262C8.45619 35.8086 8.97483 36.0234 9.51562 36.0234H23.1094C23.6502 36.0234 24.1688 35.8086 24.5512 35.4262C24.9336 35.0438 25.1484 34.5252 25.1484 33.9844C25.1484 33.4436 24.9336 32.9249 24.5512 32.5425C24.1688 32.1601 23.6502 31.9453 23.1094 31.9453Z" fill="#0F358C"/>
<path d="M22.4297 50.2969C22.4297 49.7561 22.2149 49.2374 21.8325 48.855C21.4501 48.4726 20.9314 48.2578 20.3906 48.2578H6.79688C6.25608 48.2578 5.73744 48.4726 5.35504 48.855C4.97264 49.2374 4.75781 49.7561 4.75781 50.2969C4.75781 50.8377 4.97264 51.3563 5.35504 51.7387C5.73744 52.1211 6.25608 52.3359 6.79688 52.3359H20.3906C20.9314 52.3359 21.4501 52.1211 21.8325 51.7387C22.2149 51.3563 22.4297 50.8377 22.4297 50.2969Z" fill="#0F358C"/>
<path d="M21.75 56.4141H12.2344C11.6936 56.4141 11.1749 56.6289 10.7925 57.0113C10.4101 57.3937 10.1953 57.9123 10.1953 58.4531C10.1953 58.9939 10.4101 59.5126 10.7925 59.895C11.1749 60.2774 11.6936 60.4922 12.2344 60.4922H21.75C22.2908 60.4922 22.8094 60.2774 23.1918 59.895C23.5742 59.5126 23.7891 58.9939 23.7891 58.4531C23.7891 57.9123 23.5742 57.3937 23.1918 57.0113C22.8094 56.6289 22.2908 56.4141 21.75 56.4141Z" fill="#0F358C"/>
<path d="M22.4297 42.1406C22.4297 41.5998 22.2149 41.0812 21.8325 40.6988C21.4501 40.3164 20.9314 40.1016 20.3906 40.1016H2.71875C2.17796 40.1016 1.65931 40.3164 1.27692 40.6988C0.894517 41.0812 0.679688 41.5998 0.679688 42.1406C0.679688 42.6814 0.894517 43.2001 1.27692 43.5825C1.65931 43.9649 2.17796 44.1797 2.71875 44.1797H20.3906C20.9314 44.1797 21.4501 43.9649 21.8325 43.5825C22.2149 43.2001 22.4297 42.6814 22.4297 42.1406Z" fill="#0F358C"/>
</svg>
