<svg width="80" height="80" viewBox="0 0 80 80" fill="none" xmlns="http://www.w3.org/2000/svg">
<path d="M54.1957 24.0983C53.3332 24.0983 52.6331 24.7924 52.6331 25.6509C52.6331 26.5089 53.3332 27.2042 54.1957 27.2042C55.06 27.2042 55.7582 26.5089 55.7582 25.6509C55.7582 24.7924 55.06 24.0983 54.1957 24.0983Z" fill="#0F358C"/>
<path d="M25.8049 52.3192C24.9406 52.3192 24.2424 53.0152 24.2424 53.8725C24.2424 54.7316 24.9406 55.4257 25.8049 55.4257C26.6674 55.4257 27.3675 54.7316 27.3675 53.8725C27.3675 53.0152 26.6674 52.3192 25.8049 52.3192Z" fill="#0F358C"/>
<path d="M78.0584 9.55557C77.5311 9.43361 76.9768 9.59197 76.596 9.97421L70.1181 16.4644H67.0126L63.5939 12.9436V9.81343L69.9789 3.37176C70.3568 2.99073 70.5106 2.44285 70.3855 1.92167C70.2609 1.40109 69.8752 0.981233 69.3649 0.810134C67.7609 0.27257 66.0823 0.000147366 64.3751 0.000147366C59.2859 0.000147366 54.6623 2.35912 51.6898 6.47216C48.9077 10.3225 48.0502 15.041 49.2789 19.5569L37.7691 30.9981L18.5937 11.8933V8.1437C18.5937 7.59825 18.3056 7.09224 17.835 6.81192L6.78671 0.221604C6.17145 -0.145468 5.38469 -0.0489979 4.87808 0.455196L0.458998 4.84733C-0.047609 5.35152 -0.144658 6.1336 0.224006 6.74518L6.85263 17.7276C7.13462 18.1954 7.64306 18.4812 8.19178 18.4818L11.9626 18.483L31.1399 37.5878L19.6741 48.9852C15.1311 47.7645 10.3818 48.6182 6.50655 51.3855C2.37129 54.3384 0 58.9332 0 63.9921C0 65.6886 0.274056 67.3577 0.814844 68.9516C0.987579 69.4618 1.41423 69.8471 1.94159 69.9685C2.46956 70.0904 3.02316 69.9321 3.40465 69.5498L9.88189 63.0602H13.0045L16.5624 66.5968V69.7009L10.0339 76.1395C9.64934 76.5187 9.49004 77.069 9.61272 77.5939C9.73479 78.1181 10.1224 78.5422 10.6357 78.7139C12.2391 79.2514 13.9183 79.5239 15.6249 79.5239C20.7141 79.5239 25.3359 77.1661 28.3071 73.0555C31.091 69.2034 31.9498 64.483 30.7218 59.9671L39.9304 50.8133L42.0399 53.091L41.0718 54.0527C40.4614 54.6594 40.4614 55.6429 41.0718 56.2496C41.6822 56.8558 42.671 56.8558 43.282 56.2496L44.1585 55.3784L63.9503 76.7487C63.965 76.7645 63.9802 76.7796 63.9955 76.7948C67.6577 80.4352 73.5911 80.4364 77.2552 76.7942C80.9088 73.1605 80.9088 67.2479 77.2552 63.6142C77.2393 63.5984 77.2228 63.5832 77.2063 63.568L55.6743 43.9318L56.541 43.0702C57.1514 42.4641 57.1514 41.4806 56.541 40.8738C55.9307 40.2671 54.9419 40.2671 54.3309 40.8738L53.3696 41.8301L51.0739 39.7356L60.3272 30.5376C61.6425 30.887 63 31.0642 64.3751 31.0642C72.9911 31.0642 80 24.0965 80 15.5325C80 13.8355 79.7259 12.1669 79.1852 10.5724C79.0124 10.0622 78.5858 9.67691 78.0584 9.55557ZM13.7169 15.8328C13.4239 15.541 13.0265 15.3923 12.6115 15.3923L9.07743 15.3911L3.5316 6.18699L6.22517 3.50948L15.4686 9.02346V12.5364C15.4686 12.9478 15.6328 13.3422 15.9252 13.6334L35.5596 33.195L33.3494 35.3914L13.7169 15.8328ZM53.4623 46.1306L75.0676 65.833C77.481 68.2575 77.4737 72.183 75.045 74.5984C72.6109 77.0181 68.6703 77.0254 66.2264 74.6197L46.3698 53.1796L53.4623 46.1306ZM51.1576 44.0282L44.2512 50.8922L42.1418 48.6145L48.862 41.9338L51.1576 44.0282ZM64.3751 27.9577C63.0085 27.9577 61.6645 27.7399 60.3815 27.3104C59.8193 27.1229 59.198 27.2673 58.778 27.6841C50.9445 35.4709 34.0654 52.2489 27.85 58.4278C27.43 58.8452 27.2842 59.4629 27.474 60.0223C28.7729 63.8562 28.1515 67.9456 25.7686 71.2432C23.3924 74.5311 19.6948 76.4174 15.6249 76.4174C15.1677 76.4174 14.713 76.3925 14.2625 76.3446L19.2254 71.4495C19.5209 71.1583 19.6875 70.7615 19.6875 70.3471V65.9531C19.6875 65.5411 19.5227 65.1461 19.2297 64.8549L14.7563 60.4082C14.4633 60.117 14.066 59.9531 13.6515 59.9531H9.23124C8.81436 59.9531 8.41517 60.1188 8.12159 60.4124L3.19773 65.3458C3.1489 64.898 3.12449 64.446 3.12449 63.9915C3.12449 59.9452 5.02152 56.2703 8.32972 53.9083C11.6465 51.5396 15.761 50.9213 19.6185 52.2131C20.1807 52.4018 20.802 52.2567 21.222 51.8393C21.308 51.7544 52.1281 21.1174 52.15 21.0956C52.57 20.6782 52.7152 20.0611 52.526 19.5017C51.2265 15.6678 51.8467 11.5796 54.2277 8.28446C56.6057 4.99355 60.304 3.10661 64.3745 3.10661C64.8457 3.10661 65.3139 3.1327 65.7778 3.18367L60.918 8.08667C60.6299 8.37729 60.4688 8.76864 60.4688 9.17636V13.5703C60.4688 13.9732 60.6256 14.3597 60.907 14.6491L65.2242 19.0958C65.5184 19.3992 65.9243 19.5703 66.3485 19.5703H70.7688C71.185 19.5703 71.5842 19.4053 71.8778 19.111L76.8017 14.1783C76.8505 14.626 76.8749 15.078 76.8749 15.5325C76.8749 22.3837 71.2674 27.9577 64.3751 27.9577Z" fill="#0F358C"/>
<path d="M48.6718 28.9455L29.1186 48.3821C28.5089 48.9883 28.5089 49.9718 29.1186 50.5785C29.729 51.1852 30.7184 51.1852 31.3288 50.5785L50.882 31.1419C51.4924 30.5357 51.4924 29.5522 50.882 28.9455C50.2716 28.3388 49.2822 28.3388 48.6718 28.9455Z" fill="#0F358C"/>
<path d="M68.4173 70.2063C69.0277 70.8112 70.0171 70.8112 70.6275 70.2027C71.2366 69.5953 71.2348 68.6118 70.6238 68.0063L56.5395 54.0508C55.9285 53.4453 54.9385 53.4471 54.33 54.0545C53.7202 54.6624 53.722 55.6453 54.333 56.2509L68.4173 70.2063Z" fill="#0F358C"/>
</svg>
